<svg width="34" height="33" viewBox="0 0 34 33" fill="none" xmlns="http://www.w3.org/2000/svg">
<path d="M0.452499 21.2812H7.48375V23.625V25.9688H5.14V28.3125H2.79625V30.6562H7.48375V33H0.452499V30.6562V28.3125H2.79625V25.9688H5.14V23.625H0.452499V21.2812ZM10.5475 5.46875H22.2662V9.375V13.2812H18.36V17.1875H14.4537V21.0938H22.2662V25H10.5475V21.0938V17.1875H14.4537V13.2812H18.36V9.375H10.5475V5.46875ZM26.1725 0.28125H33.2037V2.625V4.96875H30.86V7.3125H28.5162V9.65625H33.2037V12H26.1725V9.65625V7.3125H28.5162V4.96875H30.86V2.625H26.1725V0.28125Z" fill="black"/>
</svg>
